<svg width="12" height="16" viewBox="0 0 12 16" fill="none" xmlns="http://www.w3.org/2000/svg">
<path d="M7 4.16827V0H0.75C0.334375 0 0 0.327945 0 0.735577V14.9567C0 15.3644 0.334375 15.6923 0.75 15.6923H11.25C11.6656 15.6923 12 15.3644 12 14.9567V4.90385H7.75C7.3375 4.90385 7 4.57284 7 4.16827ZM9.03687 10.7888H7V13.2407C7 13.5116 6.77625 13.7311 6.5 13.7311H5.5C5.22375 13.7311 5 13.5116 5 13.2407V10.7888H2.96312C2.51688 10.7888 2.29406 10.2588 2.61094 9.95021L5.62406 7.0171C5.83187 6.81451 6.1675 6.81451 6.37531 7.0171L9.38844 9.95021C9.70562 10.2588 9.48312 10.7888 9.03687 10.7888ZM11.7812 3.21815L8.72188 0.214543C8.58125 0.0766226 8.39062 0 8.19063 0H8V3.92308H12V3.73612C12 3.54303 11.9219 3.35607 11.7812 3.21815Z" fill="black"/>
</svg>
